<svg width="30" height="30" viewBox="0 0 30 30" fill="none" xmlns="http://www.w3.org/2000/svg">
<g clip-path="url(#clip0_1462_9)">
<path d="M30 15C30 18.9782 28.4196 22.7936 25.6066 25.6066C22.7936 28.4196 18.9782 30 15 30C11.0218 30 7.20644 28.4196 4.3934 25.6066C1.58035 22.7936 0 18.9782 0 15C0 11.0218 1.58035 7.20644 4.3934 4.3934C7.20644 1.58035 11.0218 0 15 0C18.9782 0 22.7936 1.58035 25.6066 4.3934C28.4196 7.20644 30 11.0218 30 15ZM15.5381 11.0738C14.0781 11.6813 11.1619 12.9375 6.78938 14.8425C6.08063 15.1237 5.70875 15.4 5.67375 15.6712C5.6175 16.1269 6.18938 16.3069 6.9675 16.5525L7.29563 16.6556C8.06063 16.905 9.09188 17.1956 9.62625 17.2069C10.1137 17.2194 10.6562 17.0194 11.2537 16.6069C15.34 13.8494 17.4488 12.4556 17.58 12.4256C17.6737 12.4031 17.805 12.3769 17.8913 12.4556C17.9775 12.5344 17.97 12.6806 17.9606 12.72C17.9044 12.9619 15.66 15.0469 14.4994 16.1269C14.1375 16.4644 13.8806 16.7025 13.8281 16.7569C13.7126 16.8751 13.595 16.9913 13.4756 17.1056C12.7631 17.7919 12.2306 18.3056 13.5037 19.1456C14.1169 19.5506 14.6081 19.8825 15.0975 20.2162C15.63 20.58 16.1625 20.9419 16.8525 21.3956C17.0275 21.5106 17.1963 21.6275 17.3588 21.7463C17.9794 22.1887 18.54 22.5863 19.2281 22.5225C19.6294 22.485 20.0438 22.11 20.2537 20.985C20.7506 18.3281 21.7275 12.5737 21.9525 10.2019C21.9666 10.0047 21.9585 9.80658 21.9281 9.61125C21.9099 9.45376 21.8337 9.30871 21.7144 9.20438C21.5435 9.08707 21.3403 9.0261 21.1331 9.03C20.5706 9.03938 19.7025 9.34125 15.5381 11.0738Z" fill="black"/>
</g>
<defs>
<clipPath id="clip0_1462_9">
<rect width="30" height="30" fill="white"/>
</clipPath>
</defs>
</svg>
